<svg width="18" height="21" viewBox="0 0 18 21" fill="none" xmlns="http://www.w3.org/2000/svg">
<path fill-rule="evenodd" clip-rule="evenodd" d="M11.9383 19C11.9385 19.5046 11.7479 19.9906 11.4048 20.3605C11.0617 20.7305 10.5915 20.9572 10.0883 20.995L9.93832 21H7.93832C7.43375 21.0002 6.94776 20.8096 6.57778 20.4665C6.2078 20.1234 5.98117 19.6532 5.94333 19.15L5.93832 19H11.9383ZM8.93832 2C10.7533 1.99997 12.4973 2.70489 13.8026 3.96607C15.1078 5.22726 15.8721 6.94609 15.9343 8.76L15.9383 9V12.764L17.7603 16.408C17.8398 16.567 17.8796 16.7429 17.8763 16.9206C17.873 17.0984 17.8266 17.2727 17.7412 17.4286C17.6558 17.5845 17.5338 17.7174 17.3858 17.8158C17.2378 17.9143 17.0681 17.9754 16.8913 17.994L16.7763 18H1.10033C0.922489 18.0001 0.747292 17.957 0.589746 17.8745C0.4322 17.792 0.297004 17.6725 0.195742 17.5264C0.0944803 17.3802 0.0301725 17.2116 0.00832937 17.0351C-0.0135138 16.8586 0.00775918 16.6795 0.0703251 16.513L0.116325 16.408L1.93833 12.764V9C1.93833 7.14348 2.67582 5.36301 3.98858 4.05025C5.30133 2.7375 7.08181 2 8.93832 2ZM8.93832 4C7.64986 4.00007 6.41116 4.49754 5.48055 5.38866C4.54993 6.27978 3.99924 7.49575 3.94333 8.783L3.93833 9V12.764C3.93834 13.012 3.89222 13.2579 3.80233 13.489L3.72733 13.659L2.55733 16H15.3203L14.1503 13.658C14.0393 13.4363 13.9705 13.1959 13.9473 12.949L13.9383 12.764V9C13.9383 7.67392 13.4115 6.40215 12.4739 5.46447C11.5362 4.52678 10.2644 4 8.93832 4Z" fill="#979797"/>
<circle cx="14" cy="4" r="4" fill="#F2B246"/>
</svg>
