<svg width="24" height="22" viewBox="0 0 24 22" fill="none" xmlns="http://www.w3.org/2000/svg">
<path d="M19.3849 11.9992C19.3849 12.3643 19.2766 12.7213 19.0738 13.0248C18.871 13.3284 18.5826 13.565 18.2453 13.7048C17.908 13.8445 17.5368 13.881 17.1787 13.8098C16.8206 13.7386 16.4917 13.5628 16.2335 13.3046C15.9754 13.0464 15.7995 12.7175 15.7283 12.3594C15.6571 12.0013 15.6936 11.6301 15.8334 11.2928C15.9731 10.9555 16.2097 10.6672 16.5133 10.4643C16.8168 10.2615 17.1738 10.1532 17.5389 10.1532C18.0285 10.1532 18.498 10.3477 18.8442 10.6939C19.1904 11.0401 19.3849 11.5096 19.3849 11.9992ZM24 8.30716V17.5373C24 18.5165 23.611 19.4556 22.9186 20.148C22.2262 20.8404 21.2871 21.2294 20.3079 21.2294H3.6936C2.7144 21.2294 1.77531 20.8404 1.08291 20.148C0.390511 19.4556 0.00152628 18.5165 0.00152628 17.5373V3.79822C-0.0126737 3.30451 0.0723307 2.81297 0.251507 2.35271C0.430682 1.89244 0.700387 1.4728 1.04465 1.11864C1.38892 0.764476 1.80074 0.482988 2.25575 0.290841C2.71075 0.0986949 3.19969 -0.000203853 3.6936 3.15471e-07H18.9234C19.2906 3.15471e-07 19.6428 0.14587 19.9024 0.405519C20.1621 0.665168 20.3079 1.01733 20.3079 1.38453C20.3079 1.75173 20.1621 2.10389 19.9024 2.36354C19.6428 2.62319 19.2906 2.76906 18.9234 2.76906H3.6936C3.56982 2.76899 3.44729 2.79382 3.33331 2.84207C3.21932 2.89032 3.1162 2.96101 3.03009 3.04992C2.94397 3.13883 2.87662 3.24416 2.83204 3.35963C2.78746 3.4751 2.76656 3.59836 2.77058 3.72207V3.7313C2.78997 3.97569 2.90212 4.2034 3.08405 4.36774C3.26598 4.53207 3.50388 4.62057 3.74898 4.61509H20.3079C21.2871 4.61509 22.2262 5.00408 22.9186 5.69648C23.611 6.38887 24 7.32797 24 8.30716ZM21.2309 8.30716C21.2309 8.06236 21.1337 7.82759 20.9606 7.65449C20.7875 7.48139 20.5527 7.38415 20.3079 7.38415H3.74898C3.41888 7.38429 3.09011 7.34241 2.77058 7.25954V17.5373C2.77058 17.7821 2.86783 18.0169 3.04093 18.19C3.21403 18.3631 3.4488 18.4604 3.6936 18.4604H20.3079C20.5527 18.4604 20.7875 18.3631 20.9606 18.19C21.1337 18.0169 21.2309 17.7821 21.2309 17.5373V8.30716Z" fill="#b4b4b4"/>
</svg>
